<svg xmlns="http://www.w3.org/2000/svg" version="1.1" viewBox="-5.0 -10.0 110.0 135.0">
 <path d="m86.066 24.594c-0.33203-0.35547-0.88672-0.37109-1.2422-0.039062-0.3125 0.27344-0.65625 0.51172-0.99609 0.75 2.3086-2.5547 3.9453-5.8164 3.6367-9.3594 0.003906-0.74219-0.96875-1.1602-1.5039-0.63281-0.91797 0.8125-1.9023 1.5586-2.9297 2.2578 2.4766-2.9219 3.6406-6.6719 2.5469-11.801-0.16797-0.76953-1.2266-1.043-1.7461-0.44531-4.7578 5.2656-10.77 9.0117-17.02 12.312-1.7227 0.95703-3.4375 2.0625-4.5195 3.8359-1.1406 1.8711-1.2227 3.9688-1.5195 5.5391-0.48047 2.2539-1.6602 4.9688-3.7656 5.9102 0.48438-3.1992 0.10156-6.6211-1.4844-9.418 0.45312 0.25 0.87109 0.56641 1.25 0.97656 0.25391 0.29688 0.76562-0.027344 0.59766-0.38672-0.33984-0.75391-0.88672-1.4844-1.5391-2.0859 0.125-0.03125 0.24609-0.0625 0.37109-0.10547 1.4961-0.49609 2.6016-1.9141 2.8516-3.4141 0.082031-0.35156-0.42969-0.57031-0.625-0.26172-0.77734 1.1055-1.625 1.9297-2.7148 2.2617-1.0859 0.36328-2.3633 0.26953-3.6836 0.14844-0.21094-0.019531-0.41797 0.097656-0.50781 0.30078-0.10938 0.25391 0.007812 0.55078 0.26172 0.66406 0.19531 0.085938 0.39844 0.16016 0.60547 0.23047 0.023437 0.042969 0.035156 0.089844 0.070313 0.12891 3.0273 3.4375 3.0703 8.1016 1.6094 12.25-0.44922 2.5664 3.1562 1.5977 4.4531 0.83594 2.7461-1.5625 4.0742-4.6836 4.6719-7.5586 0.30469-1.9258 0.40234-3.5469 1.1523-4.7812 0.71094-1.2344 2.1055-2.1914 3.5781-3.0273 1.2109-0.66797 2.4219-1.3594 3.6211-2.0703 0.98047 3.0391-2.2109 5.1719-4.082 7.2031-0.40625 0.28125-0.12891 0.98047 0.36719 0.89062 1.3555-0.21875 2.6445-0.63672 3.7773-1.3711 0.015625 0.011719 0.03125 0.019531 0.046875 0.03125-0.15625 1.1914-0.40234 2.1953-1.1172 3.0664-0.89844 1.1289-2.3555 1.9609-3.8555 2.6992-0.15625 0.070313-0.27344 0.21875-0.29297 0.40234-0.027344 0.27344 0.17188 0.51953 0.44531 0.54688 1.1367 0.11719 2.293-0.039063 3.3711-0.40625-0.98438 3.0781-2.8125 3.8633-6.207 4.2617-0.57812 0.003906-0.71094 0.83594-0.13672 0.98438 0 0 1.7812 0.43359 2.8398 0.69531-1.0859 1.1367-2.4258 1.7422-4.0586 1.4766-0.61328-0.074219-1.2383-0.23828-1.9102-0.40234-0.41797-0.10938-0.80859 0.33984-0.63672 0.74219 0.25781 0.67969 0.71094 1.6094 0.65234 1.9453-1.0195 0.15625-2.7969-0.26172-4.0508-0.43359-0.52344-0.089844-0.80469 0.65625-0.34766 0.9375 1.5039 0.86328 4.3242 2.2344 5.8398 0.55859 0.36719-0.54688 0.35547-1.1328 0.16406-1.6875 2.5 0.71094 5.4531-0.42188 5.7188-3.4062 0.023437-0.21875-0.10938-0.41797-0.3125-0.49219 0.39062-0.10547 0.76562-0.24219 1.1211-0.41016 0.015626 0.003906 0.027344 0.011719 0.042969 0.011719 0.1875 0.011719 0.375 0.011719 0.56641 0.015625 3.707 0.73438 7.4688 0.60938 11.219 0.22656-1.7188 2.8477-5.6758 4.168-8.957 3.8203-1.3984-0.10156-2.8086-0.34766-4.2188-0.66406-0.011718-0.003906-0.019531 0-0.03125 0-0.20703-0.050781-0.43359 0.027344-0.54688 0.22266-0.14062 0.23828-0.0625 0.54297 0.17578 0.68359 1.4258 0.84375 2.9648 1.4727 4.5586 1.8984 1.25 0.32812 2.543 0.53125 3.8477 0.55469-2.8906 2.9219-7.8789 1.7266-11.254 0.011718-0.18359-0.09375-0.41406-0.070312-0.57422 0.078125-0.20703 0.19141-0.21875 0.51172-0.03125 0.71484 0.42578 0.46484 0.90625 0.89062 1.4297 1.2656 0.93359 1 2.1055 1.6719 3.3359 2.1523-2.3711 1.2422-5.2734 0.03125-7.3867-1.5117-0.019532-0.011719-0.042969-0.011719-0.0625-0.023437-0.10156-0.074219-0.22656-0.11328-0.35938-0.097657-0.79688 0.17188-0.29297 1.5859 0.21875 2.7773-1.0664-0.33594-2.0898-0.80859-2.9531-1.5195-0.17188-0.53516-0.34766-1.0508-0.52344-1.5469-0.21094-0.56641-1.082-0.30859-0.95703 0.28125 0.24219 1.1992 0.42188 2.4023 0.55859 3.6055 0.17188 2.7227 0.77344 7.5117-2.5312 8.3398-0.25781-1.9766-1.1133-3.9688-2.6094-5.793-0.45312-0.60547-1.4023 0.046876-1.0078 0.68359 0.35938 0.57031 0.66016 1.1445 0.91797 1.7148-4.8828-2.8477-8.6523-8.0898-7.7344-13.895 0.32031-2.3125 1.3047-4.5547 2.6367-6.4883 0.68359-1.0312 1.6602-2.0234 2.2617-3.2266 0.71875-1.5195 0.71875-3.3477-0.46094-4.7266-1.293-1.4922-3.1016-1.2305-4.6055-0.41016 0.082032-0.60938 0.33984-1.1602 0.98438-1.25 0.24609-0.039062 0.4375-0.20703 0.53906-0.41406 0.066406-0.050782 0.12109-0.11719 0.16016-0.21484 1.3438-3.9727 4.582-3.6016 8.1211-3.2617 2.7461 0.23438 4.7656-1.9414 4.4297-4.6523-0.019531-0.42578-0.66016-0.53516-0.8125-0.12891-0.53125 1.0703-1 2.168-2.0469 2.6484-1.0078 0.32031-2.0117 0.4375-2.9883 0.50781 0.92578-0.34766 1.7344-0.875 2.2539-1.8398 0.31641-0.69922 0.36328-1.418 0.26953-2.0664-0.03125-0.20703-0.1875-0.38281-0.40234-0.42188-0.27344-0.050781-0.53906 0.125-0.58984 0.39844-0.60938 4.9219-8.9688 0.74219-9.9258 8.2148-1.3555 0.67969-1.7305 2.5703-1.4297 4.0117l0.16797 1.0195c0.90625-0.48828 2.0742-1.2188 3.0469-1.3594 0.51172-0.10937 1.0195 0.11719 1.3242 0.51563 0.71484 0.98828 0.24219 2.4648-0.55859 3.3398-0.97266 1.1367-2 2.5273-2.7539 3.9219-2.4688-0.91797-3.7266-3.8125-4.3008-6.5703-0.41406-4.4531-1.6797-7.2617-6.0352-9.4922-3.1172-1.7227-6.2148-3.418-9.0938-5.418-2.8828-1.9883-5.5664-4.2266-8-6.7578-0.12891-0.13672-0.30469-0.24219-0.5-0.29297-0.55078-0.13672-1.1133 0.19922-1.25 0.75-0.97266 4.0078-0.19141 8.4141 2.4062 11.684-0.97266-0.67188-1.9102-1.3828-2.7852-2.1562-2.918-1.5859-1.0234 5.5977-0.21484 6.6484 0.67578 1.2266 1.4492 2.4531 2.4375 3.457-0.38281-0.26953-0.75-0.55078-1.0859-0.86719-0.17578-0.16016-0.41797-0.25781-0.67578-0.23438-0.48437 0.042969-0.83984 0.46875-0.80078 0.94922-0.14062 1.9414 0.57812 4.0234 1.8711 5.5508 1.2031 1.5977 3.043 2.3984 4.8359 3.0312 0.32813 0.12891 0.65625 0.24219 0.98828 0.35156-1.2695-0.17969-2.5312-0.39844-3.7734-0.58984-1.6094 0.35938-0.43359 2.75 0.097656 3.5664 1.7031 2.5586 4.3555 3.75 7.1992 4.0078-0.51953 0.027344-1.0352 0.042968-1.5508 0.015625-0.32031 0.035156-0.5 0.35156-0.42578 0.65234 0.16797 1.3945 1.2109 2.6445 2.4258 3.3203 1.2383 0.70312 2.6328 0.99219 4.0273 0.96094-0.019532 0.19141 0.03125 0.38672 0.1875 0.53516 1.7266 2.418 5.2227 2.918 7.6641 1.3555-0.14844 0.26953-0.27344 0.54297-0.35547 0.83594 0.011718 0.48828 0.46484 0.8125 0.93359 0.74609 1.918-0.027344 3.7227-1.1484 4.9219-2.6211 0.39453 0.90234 0.88281 1.7695 1.4766 2.5742 1.1133 1.6406 2.5625 3.0195 4.1484 4.1719l-0.082031 2.4648c-2.4141-0.085937-4.4453 3.168-2.0078 4.6914 0.25 0.16016 0.57422-0.13672 0.42578-0.40234-0.26953-0.64844-0.26562-1.2383 0.23828-1.6523 0.20312-0.24609 0.49609-0.36719 0.80859-0.46094-0.074219 0.70703 0.13281 1.4453 0.73438 1.9727 0.22656 0.21875 0.62891 0 0.57031-0.3125-0.050781-0.78125-0.003906-1.5312 0.49609-2.0234 0.53516-0.46094 1.1523-0.23047 1.8828 0.015626 0.097657 0.039062 0.20703 0.046874 0.30859-0.003907 0.64453-0.46094-0.62891-1.5078-1.2109-1.6562-0.22266-0.070312-0.42969-0.09375-0.63281-0.097656l0.37109-1.293c0.73047 0.42578 1.4727 0.80859 2.2148 1.1445 0.027344 0.015624 0.0625 0.011718 0.089844 0.023437 0.51172 3.2656-0.77734 6.3125-4.1289 8.5547-3.1445 2.1836-8.1602 3.082-10.492 6.7773-0.83594 1.3047-1.2383 2.8242-1.3242 4.2812-0.015625 0.21094 0.054687 0.42969 0.20703 0.59766 0.30078 0.32813 0.80859 0.35547 1.1406 0.054688 1.0859-0.98828 2.3867-1.7383 3.7734-2.1641 0.42969-0.13281 0.87109-0.22266 1.3164-0.29297-3.332 2.3516-5.7617 5.0547-4.457 9.8906 0.48828 1.6328 1.3203 3.043 2.2148 4.3711 0.39844 0.64453 1.4844 0.35937 1.5156-0.40234 0.45313-2.8867 1.9141-5.2852 4.1055-7.1992 0.88672-0.79688 1.8711-1.5117 2.8789-2.2227-2.2891 4.1172-2.5352 7.3945-2.1953 9.6445 0.4375 2.875 2.0469 5.293 4.5352 6.8086 0.16016 0.097656 0.33984 0.14453 0.51953 0.14453 0.15625 0 0.3125-0.035156 0.45313-0.10938 0.30859-0.16016 0.51562-0.46484 0.53906-0.8125 0.25-3.2344 1.8789-5.6836 4.3555-6.5469 0.26562-0.09375 0.47656-0.28906 0.58984-0.54688 0.10938-0.25781 0.10938-0.54688-0.003906-0.80469-1.543-3.4492-0.27344-5.4805 1.4805-8.2969 0.35547-0.57031 0.72266-1.1602 1.0781-1.7812 0.34375 2.3672 0.20703 4.8242-0.19922 7.2422-0.035156 0.19922 0.003907 0.41797 0.12109 0.60156 0.25391 0.40625 0.79688 0.53125 1.1992 0.26953 1.8477-1.0938 3.582-2.5703 4.8008-4.5156 2-3.1523 1.9297-6.6641 0.97656-10.07 0.60156 1.0273 1.2109 2.0547 1.8555 3.0703 0.21094 0.36719 0.80078 0.30859 0.9375-0.097656 3.5547-8.918-3.2734-16.625-11.504-19.18 0.24219-1.6719 0.023438-3.4766-0.39062-5.207 0.81641 0.60938 1.6953 1.0938 2.0664 1.1641 0.67969 0.20312 1.4883 0.42578 2.1758 0.17188 0.39063-0.22266 0.52734-0.71875 0.30469-1.1094-0.078125-0.13672-0.15625-0.26172-0.23438-0.38281 1.582 0.94141 3.5039 1.2656 5.2344 0.46875 0.63672-0.25 2.5703-1.5391 2.5508-2.3906 0.023438 0 0.046875 0.003906 0.074219 0.003906 2.6914 0.10547 6.1328-1.457 6.3945-4.4609-0.011719-0.27734-0.24219-0.49219-0.51953-0.48047-0.41797 0.023437-0.83984 0.019531-1.2578 0.003906 0.31641-0.035156 0.63281-0.074219 0.94922-0.13672 3.2148-0.65625 6.8477-3.1211 6.9258-6.7188-0.10938-0.50781-0.60938-0.82812-1.1133-0.71875-1.082 0.20312-2.1875 0.39453-3.3008 0.55859 2.1719-0.66797 4.2344-1.6602 5.6758-3.3672 1.2969-1.5273 2.0117-3.6094 1.8711-5.5508 0.019531-0.23828-0.058594-0.48828-0.23438-0.67578zm-50.484-1.8281c0.74219 1.1953 0.85938 2.8047 1.1797 4.7383 0.60156 3.1836 2.7383 6.9336 6.0508 7.6953-0.6875 1.5898-1.0859 3.2969-1.1953 5.0195-0.86719 0.14062-1.7344 0.24609-2.3359 0.15625-0.11719-0.375 0.75781-1.8281 0.67578-2.2734-0.070312-0.29687-0.36719-0.48047-0.66406-0.41406-1.7266 0.46875-3.582 0.82422-5.0781-0.29688-0.30469-0.20703-0.58594-0.48047-0.87109-0.78125 1.0625-0.25781 2.8203-0.6875 2.8203-0.6875 0.57031-0.14062 0.44922-0.98047-0.13672-0.98438-3.3945-0.39844-5.2227-1.1836-6.207-4.2656 1.0742 0.36719 2.2344 0.52734 3.3711 0.40625 0.48828-0.035156 0.61328-0.76172 0.15234-0.94922-2.8672-1.3203-4.6094-2.8047-5-5.7461 0.027344-0.015624 0.054688-0.027343 0.082031-0.042968 0.40234 0.25391 0.82031 0.46484 1.2461 0.64844 0.80859 0.33984 1.6406 0.59375 2.5273 0.71484 0.17188 0.023437 0.35547-0.042969 0.46484-0.19531 0.16406-0.21875 0.12109-0.53125-0.10156-0.69531-1.8359-1.9922-4.9531-4.082-4.1367-7.0352 1.1914 0.70703 2.3945 1.3906 3.6055 2.0391 1.4688 0.81641 2.8516 1.7539 3.5547 2.9492zm-19.34-14.359c1.9883 2.0977 4.1758 4.0195 6.5234 5.7031 1.4531 1.043 2.9453 2.0234 4.457 2.9531-1.7109 1.5586-1.0938 3.6406 0.34766 5.3906-3.082-1.7188-6.3438-3.4805-8.6797-6.0234-1.8594-2.1445-2.6992-5.1328-2.6523-8.0234zm-1.5508 9.5938c2.9141 2 6.1211 3.5039 9.4141 4.7852 0.91406 0.46484 1.8438 0.91016 2.7773 1.3398-0.46875 1.7773 0.23438 3.4453 1.4961 4.707-3.2266-0.84375-6.5898-2.1797-9.3359-3.957-1.3984-0.95703-2.3789-2.4883-3.1914-3.9648-0.51172-0.92969-0.89844-1.9102-1.1562-2.9102zm2.8594 11.148c-0.5-0.54688-0.91797-1.1484-1.2578-1.8008 3.3281 1.7812 7.207 2.3711 10.969 2.6562 0.41406 0.0625 0.83203 0.10938 1.25 0.15234-0.17578 0.82422-0.15625 1.6875 0.13281 2.5508 0.19922 0.60547 0.51172 1.1172 0.90234 1.5508-4.4844-0.14844-9.0352-1.6641-11.996-5.1094zm23.766 17.473c-0.625 0.42188-1.3594 0.69141-2.1055 0.90625 0.28125-0.70312 0.53906-1.4375 0.60937-2.1602 0.027344-0.23438-0.11328-0.46484-0.35156-0.53906-0.097656-0.03125-0.19531-0.019531-0.28516 0.007813-0.011719 0-0.023438 0.007812-0.035156 0.011718-0.027344 0.011719-0.050782 0.015625-0.078126 0.03125-0.027343 0.011719-0.058593 0.015625-0.085937 0.035156-1.918 1.3086-4.0703 2.4688-6.4062 1.8906-0.33594-0.085938-0.67188-0.20703-0.99609-0.37109 1.2344-0.48047 2.4062-1.1562 3.3438-2.1641 0.51953-0.375 1-0.78906 1.4141-1.25 0.13672-0.14844 0.17578-0.37109 0.085937-0.5625-0.12109-0.25781-0.43359-0.36328-0.6875-0.23438-2.9219 1.4648-6.3516 2.4062-9.4727 1.1953-0.69141-0.28125-1.3125-0.66406-1.8281-1.2148 2.9766-0.050781 5.8906-0.95703 8.457-2.4492 0.51562-0.30859 0.12891-1.0391-0.37109-0.90625-0.011719 0.003906-0.023438 0-0.035157 0-1.4102 0.31641-2.8242 0.5625-4.2188 0.66406-2.7188 0.19531-5.418-0.35156-7.4766-2.1562-0.58203-0.50391-1.1133-1.0703-1.5-1.668 3.7656 0.38281 7.5391 0.51172 11.258-0.23047 0.18359-0.003906 0.36328-0.003906 0.54688-0.015625 0.015625 0 0.027344-0.007812 0.042969-0.011718 0.35547 0.17187 0.73438 0.30859 1.1211 0.41016-0.20312 0.074218-0.33984 0.26953-0.3125 0.49219 0.26562 2.9844 3.2188 4.1133 5.7188 3.4023-0.19141 0.55469-0.20312 1.1406 0.16406 1.6875 0.94141 1.0508 2.418 0.90234 3.7539 0.42969 0.0625 1.3633 0.3125 2.7188 0.74609 4.0117-0.32812 0.27734-0.68359 0.50781-1.0273 0.74219zm-2.4844 27.109c1.7812-4.043 7.0547-4.7617 10.828-7.332 3.043-2.0117 4.6562-4.8359 4.8477-7.8203 0.027344 0 0.054688-0.003906 0.082032-0.003906 0.99609 7.2266-3.7852 10.445-8.4297 13.387-2.5586-0.26563-5.1719 0.39062-7.3242 1.7656zm2.2578 11.176c-0.21094-0.52344-0.39844-1.0508-0.53516-1.5781-1.3984-4.6406 3.1758-7.2305 6.4844-9.4766 2.5273-1.7188 5.2344-3.5742 7.0703-6.3359 1.7695-2.5859 2.2422-5.8828 1.7891-8.9258 1.2461 3.9609 1.9023 8.3125-0.46094 11.848-3.9062 5.4453-12.461 7.6172-14.348 14.473zm16.848-8.0742c-1.6328 2.6211-3.3203 5.3242-1.9805 9.2266-2.2305 1.1445-3.8438 3.3672-4.4766 6.1523-1.2695-1.1602-2.0703-2.6797-2.3438-4.4648-0.57422-3.7773 1.3086-8.4062 5.2969-13.078 4.9023-4.0742 5.3281-9.9102 3.5117-15.562 5.0078 9.6562 2.3594 13.93-0.007812 17.727zm4.5703 4.6797c0.26953-2.6016 0.20313-5.2852-0.50391-7.8711-0.011718-0.046875-0.042968-0.078125-0.058594-0.12109 1.3359-3.5352 1.5352-8.2383-2.3945-15.66 1.3477 1.543 2.5859 3.1758 3.7578 4.8555 1.1602 3.7773 5.2695 13.188-0.80078 18.801zm4.4844-19.895c1.8867 2.4805 2.5664 5.457 2.5508 8.5234-1.082-2.5156-2.5117-4.875-4.0703-7.1328-1.9609-2.8477-4.25-5.5-6.9102-7.7148 3.2891 1.5508 6.3633 3.5391 8.4297 6.3203zm18.312-43.566c-0.67969 2.6367-2.2188 5.1914-4.3203 6.8281-2.7266 1.7617-6.0625 3.0938-9.2695 3.9375 1.1953-1.2773 1.8594-3.043 1.4453-4.6836 1.0469-0.46484 2.0664-0.94922 3.043-1.4648 2.5625-1.0273 5.0625-2.1992 7.4609-3.582 0.55469-0.32813 1.1016-0.67188 1.6367-1.0352zm-8.125-4.0625c2.3555-1.6797 4.5742-3.5781 6.6094-5.6445 0.0625 2.9102-0.77344 5.9258-2.6484 8.0898-2.332 2.543-5.5977 4.3047-8.6758 6.0234 1.4766-1.793 2.0742-3.9297 0.20312-5.5 1.5352-0.93359 3.0469-1.9141 4.5156-2.9688zm-6.707 20.277c0.39453-0.4375 0.71094-0.95312 0.91016-1.5625 0.27734-0.85547 0.32031-1.7266 0.13672-2.5469 0.4375-0.035156 0.87109-0.082031 1.3008-0.14844 3.293-0.24219 6.582-0.80859 9.668-2.0547 0.39453-0.16797 0.78516-0.35547 1.1719-0.55078-2.418 4.5664-8.0508 6.6914-13.191 6.8633zm-20.719-13.129c0.10547 0.015625 0.17969 0.11328 0.16406 0.21875-0.37109 0.69922-1 1.1211-1.5781 1.4648-0.65234 0.36719-1.2656 0.55859-2.0625 0.25391-0.11719-0.046875-0.17578-0.17969-0.13672-0.29688 0.57812-1.4258 2.1836-1.7383 3.6094-1.6367z"/>
<text x="0.0" y="117.5" font-size="5.0" font-weight="bold" font-family="Arbeit Regular, Helvetica, Arial-Unicode, Arial, Sans-serif" fill="#000000">Created by Lewen Design</text><text x="0.0" y="122.5" font-size="5.0" font-weight="bold" font-family="Arbeit Regular, Helvetica, Arial-Unicode, Arial, Sans-serif" fill="#000000">from Noun Project</text></svg>